<?xml version="1.0" encoding="utf-8"?>
<svg xmlns="http://www.w3.org/2000/svg" viewBox="0 0 250 100" xmlns:bx="https://boxy-svg.com"
    width="250px" height="100px">
    <rect
        style="fill: rgb(115, 39, 47); filter: url(&quot;#drop-shadow-filter-0&quot;); paint-order: stroke; stroke-width: 0px;"
        x="172.827" width="65.54" height="65.54" rx="8" ry="8" y="16" />
    <path
        d="M 8.39 66.65 L 8.39 32.87 L 16.11 32.87 L 16.11 59.54 L 32.76 59.54 L 32.76 66.65 Z M 44.49 67.03 Q 42.73 67.03 41.15 66.55 Q 39.58 66.07 38.34 65.12 Q 37.1 64.17 36.38 62.73 Q 35.67 61.3 35.67 59.4 Q 35.67 56.68 36.79 55.08 Q 37.91 53.48 39.84 52.69 Q 41.77 51.91 44.25 51.67 Q 46.73 51.43 49.41 51.43 L 51.79 51.43 Q 51.79 50.24 51.34 49.35 Q 50.88 48.47 49.98 47.95 Q 49.07 47.42 47.74 47.42 Q 46.78 47.42 45.95 47.69 Q 45.11 47.95 44.56 48.4 Q 44.02 48.85 43.82 49.52 L 36.24 49.52 Q 36.57 47.28 37.65 45.68 Q 38.72 44.08 40.32 43.08 Q 41.92 42.08 43.92 41.58 Q 45.92 41.08 48.02 41.08 Q 53.56 41.08 56.27 44.18 Q 58.99 47.28 58.99 53.15 L 58.99 66.65 L 52.08 66.65 L 52.03 63.35 Q 50.84 65.17 49.31 65.93 Q 47.78 66.69 46.45 66.86 Q 45.11 67.03 44.49 67.03 Z M 46.4 61.16 Q 47.83 61.16 49.07 60.52 Q 50.31 59.87 51.1 58.85 Q 51.89 57.82 51.89 56.63 L 51.89 56.25 L 47.21 56.25 Q 46.45 56.25 45.71 56.34 Q 44.97 56.44 44.4 56.7 Q 43.82 56.96 43.49 57.44 Q 43.16 57.92 43.16 58.68 Q 43.16 59.49 43.59 60.04 Q 44.02 60.59 44.75 60.87 Q 45.49 61.16 46.4 61.16 Z M 74.35 66.98 Q 70.01 66.98 67.81 64.52 Q 65.62 62.07 65.62 57.87 L 65.62 48.23 L 62 48.23 L 62 41.51 L 65.62 41.51 L 65.62 34.97 L 73.2 34.97 L 73.2 41.51 L 80.79 41.51 L 80.79 48.23 L 73.2 48.23 L 73.2 56.2 Q 73.2 57.34 73.54 58.16 Q 73.87 58.97 74.61 59.42 Q 75.35 59.87 76.54 59.87 Q 77.74 59.87 78.5 59.51 Q 79.26 59.16 79.79 58.73 L 81.93 64.64 Q 80.93 65.5 79.57 66.03 Q 78.21 66.55 76.88 66.77 Q 75.54 66.98 74.35 66.98 Z M 90.28 66.65 L 81.74 41.51 L 89.99 41.51 L 95.38 60.68 L 100.73 41.51 L 108.93 41.51 L 100.39 66.65 Z M 111.27 66.65 L 111.27 41.51 L 118.85 41.51 L 118.85 66.65 Z M 115.08 39.41 Q 112.98 39.41 111.72 38.17 Q 110.46 36.93 110.46 34.93 Q 110.46 32.87 111.79 31.59 Q 113.13 30.3 115.13 30.3 Q 117.04 30.3 118.37 31.54 Q 119.71 32.78 119.71 34.88 Q 119.71 36.93 118.42 38.17 Q 117.13 39.41 115.08 39.41 Z M 119 76.76 L 119 69.99 L 120.91 69.99 Q 122.29 69.99 122.89 69.48 Q 123.49 68.98 123.63 68.27 Q 123.77 67.55 123.77 66.93 L 123.77 41.51 L 131.31 41.51 L 131.31 68.08 Q 131.31 70.99 130.52 72.92 Q 129.73 74.85 127.9 75.8 Q 126.06 76.76 122.96 76.76 Z M 127.54 39.41 Q 125.44 39.41 124.18 38.17 Q 122.91 36.93 122.91 34.93 Q 122.91 32.87 124.25 31.59 Q 125.58 30.3 127.59 30.3 Q 129.5 30.3 130.83 31.54 Q 132.17 32.78 132.17 34.88 Q 132.17 36.93 130.88 38.17 Q 129.59 39.41 127.54 39.41 Z M 144.66 67.03 Q 142.89 67.03 141.32 66.55 Q 139.75 66.07 138.51 65.12 Q 137.27 64.17 136.55 62.73 Q 135.83 61.3 135.83 59.4 Q 135.83 56.68 136.96 55.08 Q 138.08 53.48 140.01 52.69 Q 141.94 51.91 144.42 51.67 Q 146.9 51.43 149.57 51.43 L 151.96 51.43 Q 151.96 50.24 151.5 49.35 Q 151.05 48.47 150.14 47.95 Q 149.24 47.42 147.9 47.42 Q 146.95 47.42 146.11 47.69 Q 145.28 47.95 144.73 48.4 Q 144.18 48.85 143.99 49.52 L 136.41 49.52 Q 136.74 47.28 137.81 45.68 Q 138.89 44.08 140.49 43.08 Q 142.08 42.08 144.09 41.58 Q 146.09 41.08 148.19 41.08 Q 153.72 41.08 156.44 44.18 Q 159.16 47.28 159.16 53.15 L 159.16 66.65 L 152.24 66.65 L 152.2 63.35 Q 151 65.17 149.48 65.93 Q 147.95 66.69 146.61 66.86 Q 145.28 67.03 144.66 67.03 Z M 146.57 61.16 Q 148 61.16 149.24 60.52 Q 150.48 59.87 151.27 58.85 Q 152.05 57.82 152.05 56.63 L 152.05 56.25 L 147.38 56.25 Q 146.61 56.25 145.88 56.34 Q 145.14 56.44 144.56 56.7 Q 143.99 56.96 143.66 57.44 Q 143.32 57.92 143.32 58.68 Q 143.32 59.49 143.75 60.04 Q 144.18 60.59 144.92 60.87 Q 145.66 61.16 146.57 61.16 Z"
        style="text-wrap-mode: nowrap;" />
    <defs>
        <filter id="drop-shadow-filter-0" bx:preset="drop-shadow 1 0 4 6 0.25 rgba(0,0,0,0.3)"
            color-interpolation-filters="sRGB" x="-50%" y="-50%" width="200%" height="200%">
            <feGaussianBlur in="SourceAlpha" stdDeviation="6" />
            <feOffset dx="0" dy="4" />
            <feComponentTransfer result="offsetblur">
                <feFuncA id="spread-ctrl" type="linear" slope="0.5" />
            </feComponentTransfer>
            <feFlood flood-color="rgba(0,0,0,0.3)" />
            <feComposite in2="offsetblur" operator="in" />
            <feMerge>
                <feMergeNode />
                <feMergeNode in="SourceGraphic" />
            </feMerge>
        </filter>
    </defs>
    <path
        d="M 181.4 66.65 L 194.75 32.87 L 202.96 32.87 L 216.17 66.65 L 207.82 66.65 L 205.96 61.4 L 191.6 61.4 L 189.7 66.65 Z M 194.04 54.39 L 203.53 54.39 L 198.85 41.32 Z M 219.45 66.65 L 219.45 32.87 L 227.18 32.87 L 227.18 66.65 Z"
        style="fill: rgb(255, 255, 255); paint-order: stroke; stroke-width: 0px; text-wrap-mode: nowrap;" />
</svg>